# xmcd
#
# Track frame offsets: 
#        150
#        20200
#        44955
#        61320
#        81096
#        100515
#        116330
#        138362
#        160770
#        180062
#
# Disc length: 2756 seconds
#
# Revision: 0
# Processed by: cddbd v1.5.2PL0 Copyright (c) Steve Scherf et al.
# Submitted via: ExactAudioCopy v1.0b1
#
DISCID=790ac20a
DTITLE=The Hi And Lo - Ten Tracks
DYEAR=2009
DGENRE=Country
TTITLE0=Holding A Ten Ton Load
TTITLE1=Across The Water
TTITLE2=Fragile Works Of Art
TTITLE3=Yesterday's Lies
TTITLE4=The Bad Times Aren't As Bad
TTITLE5=I Get Blue
TTITLE6=Ray of Sunshine
TTITLE7=Before I Go
TTITLE8=Red Room
TTITLE9=I Could Be A Happy Man
EXTD=
EXTT0=
EXTT1=
EXTT2=
EXTT3=
EXTT4=
EXTT5=
EXTT6=
EXTT7=
EXTT8=
EXTT9=
PLAYORDER=
